<svg width="36" height="28" viewBox="0 0 36 28" fill="none" xmlns="http://www.w3.org/2000/svg">
<path d="M34.8805 13.7664C34.1463 12.5113 33.1085 11.4661 31.9177 10.6309C31.7765 10.5283 31.5012 10.3393 31.1152 10.295C31.5247 9.0842 31.7647 7.4908 31.6706 6.39198C31.4329 3.55046 29.9715 1.7121 27.3428 0.631944C24.7283 -0.441211 21.9655 -0.22658 19.9604 1.87074C18.7438 3.13986 18.2496 4.77759 17.9601 6.49463C17.8566 6.13069 17.7318 5.76675 17.5883 5.41215C16.501 2.72226 14.5266 0.309997 11.3543 0.319329C8.4903 0.328661 6.08755 2.25334 4.96266 4.77992C4.21666 6.45497 3.82365 8.8719 4.3202 10.8922C3.07765 11.8394 2.02571 13.1015 1.275 14.2773C-0.322914 16.7736 -0.475881 20.1214 1.12909 22.6479C2.92468 25.4638 6.30877 26.46 9.32574 27.3208C12.0556 28.0977 20.0593 28.408 27.0863 27.1669C29.7644 26.6933 33.598 25.0182 34.97 22.3913C35.6736 21.0499 36.0054 19.6104 36.0031 18.122C36.0031 16.5846 35.6618 15.1055 34.8782 13.7688L34.8805 13.7664ZM27.6017 14.9376C26.2556 17.5738 22.6267 20.6043 19.8075 21.6074C18.026 22.2723 16.4022 21.7824 14.8302 20.8936C13.1099 19.9324 11.559 18.7239 10.1894 17.3195C9.49988 16.5846 8.8433 15.8684 8.43853 14.9072C8.36322 14.7183 8.455 14.506 8.64562 14.4313C8.81036 14.366 8.98921 14.4266 9.0857 14.562C9.96584 15.5115 11.1896 16.202 12.3121 16.8599C14.0912 17.8234 16.0892 18.8359 18.0942 19.0832C18.7061 19.1275 19.5415 18.8779 20.1887 18.6469C20.9794 18.3577 21.7843 17.9821 22.5703 17.5668C24.1211 16.7199 25.7237 15.7518 26.9828 14.5153C27.2722 14.2167 27.7805 14.562 27.597 14.9376H27.6017Z" fill="#1F2A37"/>
</svg>
